<?xml version="1.0" encoding="iso-8859-1"?>
<!-- Generator: Adobe Illustrator 16.0.0, SVG Export Plug-In . SVG Version: 6.00 Build 0)  -->
<!DOCTYPE svg PUBLIC "-//W3C//DTD SVG 1.1//EN" "http://www.w3.org/Graphics/SVG/1.1/DTD/svg11.dtd">
<svg version="1.1" id="Capa_1" xmlns="http://www.w3.org/2000/svg" xmlns:xlink="http://www.w3.org/1999/xlink" x="0px" y="0px"
	 width="28px" height="28px" viewBox="0 0 28.756 28.756" style="enable-background:new 0 0 28.756 28.756;"
	 xml:space="preserve">
<g>
	<g>
		<path d="M5.968,14.782v13.297H22.79V14.782L14.378,7.73L5.968,14.782z M13.496,24h-3.452v-3.451h3.452V24z M13.496,18.786h-3.452
			v-3.451h3.452V18.786z M15.259,15.334h3.453v3.451h-3.453V15.334z M15.259,20.547h3.453V24h-3.453V20.547z"/>
		<path d="M28.126,11.668L15.511,1.09c-0.655-0.549-1.611-0.549-2.267,0L0.63,11.668c-0.745,0.625-0.844,1.738-0.219,2.484
			c0.349,0.416,0.849,0.63,1.354,0.63c0.399,0,0.801-0.135,1.131-0.412l11.482-9.628l11.483,9.628
			c0.749,0.629,1.858,0.527,2.483-0.218C28.97,13.406,28.872,12.293,28.126,11.668z"/>
	</g>
</g>
<g>
</g>
<g>
</g>
<g>
</g>
<g>
</g>
<g>
</g>
<g>
</g>
<g>
</g>
<g>
</g>
<g>
</g>
<g>
</g>
<g>
</g>
<g>
</g>
<g>
</g>
<g>
</g>
<g>
</g>
</svg>
